# Blender v2.69 (sub 0) OBJ File: 'Boxy.blend'
# www.blender.org
v -0.500000 -0.500000 1.452873
v -0.500000 -0.500000 -1.349398
v 0.500000 -0.500000 -1.349398
v 0.500000 -0.500000 1.452873
v 0.447585 -0.007894 -1.215833
v -0.500000 0.500000 -1.349398
v 0.500000 0.500000 -1.349398
v -0.447585 -0.455478 0.126921
v -0.500000 0.000000 1.650602
v -0.500000 0.500000 0.150602
v -0.500000 0.000000 -1.349398
v -0.500000 -0.500000 0.150602
v 0.000000 0.500000 -1.349398
v 0.500000 0.000000 -1.349398
v 0.000000 -0.500000 -1.349398
v 0.500000 0.500000 0.150602
v 0.500000 0.000000 1.650602
v 0.500000 -0.500000 0.150602
v 0.447585 -0.007894 1.469675
v 0.000000 -0.500000 1.650602
v -0.500000 0.000000 0.150602
v 0.000000 0.000000 -1.349398
v 0.500000 0.000000 0.150602
v 0.000000 0.000000 1.981975
v 0.000000 -0.500000 0.150602
v 0.000000 0.500000 0.150602
v -0.447585 -0.455478 -1.215833
v -0.500000 0.500000 -0.599397
v -0.500000 -0.250000 -1.349398
v -0.500000 -0.500000 0.900602
v 0.250000 0.500000 -1.349398
v 0.500000 -0.250000 -1.349398
v -0.250000 -0.500000 -1.349398
v 0.447585 -0.455478 1.469675
v 0.500000 -0.250000 1.650602
v 0.500000 -0.500000 -0.599397
v 0.000000 0.439691 -1.215833
v 0.250000 -0.500000 1.568441
v -0.500000 -0.250000 1.650602
v -0.447585 -0.455478 1.469675
v -0.500000 0.250000 -1.349398
v -0.500000 -0.500000 -0.599397
v -0.250000 0.500000 -1.349398
v 0.500000 0.250000 -1.349398
v 0.250000 -0.500000 -1.349398
v 0.500000 0.500000 -0.599397
v 0.447585 -0.455478 -1.215833
v 0.500000 -0.500000 0.900602
v -0.447585 -0.007894 -1.215833
v -0.250000 -0.500000 1.568441
v -0.500000 -0.250000 0.150602
v -0.500000 0.250000 0.150602
v -0.500000 0.000000 0.900602
v -0.500000 0.000000 -0.599397
v 0.000000 -0.250000 -1.349398
v 0.000000 0.250000 -1.349398
v -0.250000 0.000000 -1.349398
v 0.250000 0.000000 -1.349398
v 0.500000 -0.250000 0.150602
v 0.500000 0.250000 0.150602
v 0.500000 0.000000 -0.599397
v 0.500000 0.000000 0.900602
v 0.000000 -0.250000 1.650602
v 0.447585 0.439691 0.126921
v 0.250000 0.000000 1.861089
v -0.250000 0.000000 1.861089
v 0.250000 -0.500000 0.150602
v -0.250000 -0.500000 0.150602
v 0.000000 -0.500000 0.900602
v 0.000000 -0.500000 -0.599397
v -0.250000 0.500000 0.150602
v 0.250000 0.500000 0.150602
v 0.000000 -0.455478 -1.215833
v 0.000000 0.500000 -0.599397
v -0.500000 -0.250000 -0.599397
v 0.250000 -0.250000 -1.349398
v 0.500000 -0.250000 0.900602
v -0.250000 -0.250000 1.650602
v 0.250000 -0.500000 -0.599397
v -0.250000 0.500000 -0.599397
v -0.500000 -0.250000 0.900602
v -0.500000 0.144107 0.590987
v -0.500000 0.250000 -0.599397
v -0.250000 -0.250000 -1.349398
v -0.250000 0.250000 -1.349398
v 0.250000 0.250000 -1.349398
v 0.500000 -0.250000 -0.599397
v 0.500000 0.250000 -0.599397
v 0.500000 0.112873 0.590987
v 0.250000 -0.250000 1.650602
v -0.447585 0.439691 -1.215833
v 0.447585 0.439691 -1.215833
v 0.250000 -0.500000 0.900602
v -0.250000 -0.500000 0.900602
v -0.250000 -0.500000 -0.599397
v -0.447585 -0.007894 1.469675
v -0.447585 0.439691 0.126921
v 0.250000 0.500000 -0.599397
v 0.447585 -0.455478 0.126921
v 0.000000 -0.455478 1.469675
v -0.447585 -0.007894 0.126921
v 0.000000 -0.007894 -1.215833
v 0.447585 -0.007894 0.126921
v 0.000000 -0.007894 1.801048
v 0.000000 -0.455478 0.126921
v 0.000000 0.439691 0.126921
v -0.447585 0.439691 -0.544456
v -0.447585 -0.231686 -1.215833
v -0.447585 -0.455478 0.798298
v 0.223792 0.439691 -1.215833
v 0.447585 -0.231686 -1.215833
v -0.223792 -0.455478 -1.215833
v 0.447585 -0.231686 1.469675
v 0.447585 -0.455478 -0.544456
v 0.223792 -0.455478 1.469675
v -0.447585 -0.231686 1.469675
v -0.447585 0.215898 -1.215833
v -0.447585 -0.455478 -0.544456
v -0.223792 0.439691 -1.215833
v 0.447585 0.215898 -1.215833
v 0.223792 -0.455478 -1.215833
v 0.447585 0.439691 -0.544456
v 0.447585 -0.455478 0.798298
v -0.223792 -0.455478 1.469675
v -0.447585 -0.231686 0.126921
v -0.447585 0.215898 0.126921
v -0.447585 -0.007894 0.798298
v -0.447585 -0.007894 -0.544456
v 0.000000 -0.231686 -1.215833
v 0.000000 0.215898 -1.215833
v -0.223792 -0.007894 -1.215833
v 0.223792 -0.007894 -1.215833
v 0.447585 -0.231686 0.126921
v 0.447585 0.215898 0.126921
v 0.447585 -0.007894 -0.544456
v 0.447585 -0.007894 0.798298
v 0.000000 -0.231686 1.469675
v 0.223792 -0.007894 1.680162
v -0.223792 -0.007894 1.680162
v 0.223792 -0.455478 0.126921
v -0.223792 -0.455478 0.126921
v 0.000000 -0.455478 0.798298
v 0.000000 -0.455478 -0.544456
v -0.223792 0.439691 0.126921
v 0.223792 0.439691 0.126921
v 0.000000 0.439691 -0.544456
v -0.447585 -0.231686 -0.544456
v 0.223792 -0.231686 -1.215833
v 0.447585 -0.231686 0.798298
v -0.223792 -0.231686 1.469675
v 0.223792 -0.455478 -0.544456
v -0.223792 0.439691 -0.544456
v -0.447585 -0.231686 0.798298
v -0.447585 0.110006 0.590987
v -0.447585 0.215898 -0.544456
v -0.223792 -0.231686 -1.215833
v -0.223792 0.215898 -1.215833
v 0.223792 0.215898 -1.215833
v 0.447585 -0.231686 -0.544456
v 0.447585 0.215898 -0.544456
v 0.447585 0.078771 0.590987
v 0.223792 -0.231686 1.469675
v 0.223792 -0.455478 0.798298
v -0.223792 -0.455478 0.798298
v -0.223792 -0.455478 -0.544456
v 0.223792 0.439691 -0.544456
vt 0.142212 0.426637
vt 0.189617 0.426637
vt 0.142212 0.568849
vt 0.880801 0.142212
vt 0.928205 0.142212
vt 0.880801 0.189617
vt 0.237021 0.142212
vt 0.189617 0.142212
vt 0.237021 0.000000
vt 0.946543 0.711062
vt 0.995996 0.711062
vt 1.000000 0.758466
vt 0.426637 0.142212
vt 0.379233 0.142212
vt 0.426637 0.000000
vt 0.142212 0.711062
vt 0.189617 0.711062
vt 0.142212 0.853274
vt 0.142212 0.142212
vt 0.189616 0.142212
vt 0.142212 0.284425
vt 0.067483 0.200921
vt 0.094808 0.142212
vt 0.094808 0.284425
vt 0.047404 0.426637
vt 0.094808 0.426637
vt 0.047404 0.568850
vt 0.880801 0.047404
vt 0.928205 0.047404
vt 0.880801 0.094808
vt 0.785993 0.047404
vt 0.833397 0.047404
vt 0.785993 0.094808
vt 0.785993 0.142212
vt 0.833397 0.142212
vt 0.785993 0.189617
vt 0.237021 0.426637
vt 0.237021 0.284425
vt 0.331829 0.426637
vt 0.284425 0.426637
vt 0.331829 0.284425
vt 0.305827 0.200921
vt 0.379233 0.284425
vt 0.946543 0.616254
vt 0.995996 0.616254
vt 0.946543 0.663658
vt 0.316921 0.803894
vt 0.444225 0.803894
vt 0.316921 0.846329
vt 0.823994 0.875092
vt 0.823994 0.832657
vt 0.865714 0.875092
vt 0.426637 0.426637
vt 0.379233 0.426637
vt 0.426637 0.284425
vt 0.521446 0.426637
vt 0.474041 0.426637
vt 0.521445 0.284425
vt 0.521445 0.142212
vt 0.474041 0.142212
vt 0.521445 0.000000
vt 0.571529 0.888764
vt 0.698833 0.888764
vt 0.571529 0.931198
vt 0.316921 0.888764
vt 0.444225 0.888764
vt 0.316921 0.931198
vt 0.047404 0.711062
vt 0.094808 0.711062
vt 0.047404 0.853274
vt 0.189616 0.284425
vt 0.094808 0.568850
vt 0.928205 0.094808
vt 0.833397 0.094808
vt 0.833397 0.189617
vt 0.189617 0.284425
vt 0.284425 0.284425
vt 0.284425 0.142212
vt 0.284425 0.000000
vt 0.993149 0.663658
vt 0.888456 0.663658
vt 0.892644 0.711062
vt 0.946543 0.758466
vt 0.474041 0.284425
vt 0.474041 0.000000
vt 0.142212 0.568850
vt 0.189617 0.568850
vt 0.094808 0.853274
vt 0.142212 0.000000
vt 0.189616 0.037493
vt 0.094808 0.000000
vt 0.823994 0.959961
vt 0.823994 0.917527
vt 0.865714 0.959961
vt 0.000000 0.284425
vt 0.047404 0.284425
vt 0.000000 0.426637
vt 0.000000 0.568850
vt 0.880801 0.000000
vt 0.928205 0.000000
vt 0.833397 0.000000
vt 0.785993 0.000000
vt 0.738588 0.000000
vt 0.738588 0.047404
vt 0.738588 0.094808
vt 0.738588 0.142212
vt 0.738588 0.189617
vt 0.237021 0.568849
vt 0.189617 0.568849
vt 0.284425 0.568849
vt 0.331829 0.568849
vt 0.379233 0.568849
vt 0.571529 0.611284
vt 0.444225 0.611284
vt 0.571529 0.568850
vt 0.946543 0.568850
vt 1.000000 0.568850
vt 0.899937 0.568850
vt 0.892644 0.616254
vt 0.316921 0.611284
vt 0.189617 0.611284
vt 0.316921 0.568850
vt 0.865893 0.466782
vt 0.993197 0.466782
vt 0.865893 0.509216
vt 0.696154 0.127304
vt 0.696154 0.254608
vt 0.653719 0.127304
vt 0.740553 0.875092
vt 0.740553 0.832657
vt 0.782274 0.875092
vt 0.611284 0.127304
vt 0.611284 0.254608
vt 0.568850 0.127304
vt 0.316921 0.696154
vt 0.189617 0.696154
vt 0.316921 0.653719
vt 0.426637 0.553270
vt 0.379233 0.531357
vt 0.474041 0.568849
vt 0.521446 0.553270
vt 0.568850 0.531357
vt 0.568850 0.426637
vt 0.568850 0.284425
vt 0.568850 0.142212
vt 0.568850 0.000000
vt 0.532219 0.676075
vt 0.444225 0.696154
vt 0.444225 0.653719
vt 0.865893 0.297043
vt 0.823458 0.297043
vt 0.865893 0.254608
vt 0.740553 0.959961
vt 0.740553 0.917527
vt 0.782274 0.959961
vt 0.444225 0.761460
vt 0.532219 0.829896
vt 0.611284 0.381912
vt 0.611284 0.509216
vt 0.568850 0.381912
vt 0.781023 0.297043
vt 0.738588 0.297043
vt 0.781023 0.254608
vt 0.000000 0.711062
vt 0.000000 0.853274
vt 0.696154 0.381912
vt 0.696154 0.509216
vt 0.653719 0.381912
vt 0.865893 0.381912
vt 0.993197 0.381912
vt 0.865893 0.424347
vt 0.444225 0.568850
vt 0.189617 0.653719
vt 0.865714 0.917527
vt 0.782274 0.917527
vt 0.782274 0.832657
vt 0.444225 0.931198
vt 0.444225 0.846329
vt 0.571529 0.846329
vt 0.698833 0.846329
vt 0.823458 0.254608
vt 0.793646 0.798353
vt 0.751214 0.775426
vt 0.751267 0.735579
vt 0.781023 0.339477
vt 0.738588 0.339477
vt 0.568850 0.254608
vt 0.653719 0.254608
vt 0.653719 0.509216
vt 0.738588 0.466782
vt 0.738588 0.509216
vt 0.738588 0.424347
vt 0.993197 0.424347
vt 0.698833 0.611284
vt 0.698833 0.568850
vt 0.698833 0.653719
vt 0.571529 0.653719
vt 0.444225 0.738588
vt 0.316921 0.738588
vt 0.189617 0.738588
vt 0.823994 1.002396
vt 0.865714 1.002396
vt 0.782274 1.002396
vt 0.740553 1.002396
vt 0.698833 1.002396
vt 0.698833 0.959961
vt 0.698833 0.917527
vt 0.698833 0.875092
vt 0.698833 0.832657
vt 0.189617 0.888764
vt 0.189617 0.931198
vt 0.189617 0.846329
vt 0.189617 0.803894
vt 0.189617 0.761460
vt 0.316921 0.761460
vt 0.908327 0.297043
vt 0.908327 0.254608
vt 0.908327 0.339477
vt 0.865893 0.339477
vt 0.836084 0.775436
vt 0.836136 0.735590
vt 0.611284 0.000000
vt 0.653719 0.000000
vt 0.696154 0.000000
vt 0.738588 0.127304
vt 0.738588 0.254608
vt 0.738588 0.381912
vt 0.738588 0.339478
vt 0.865893 0.339478
vt 0.993197 0.339477
vt 0.448715 0.750024
vt 0.532219 0.823430
vt 0.532219 0.682541
vt 0.698840 0.769812
vt 0.708784 0.735509
vt 0.940268 0.094808
vt 0.940268 0.142212
vt 0.940268 0.047404
vt 0.746239 0.809730
vt 0.841047 0.809741
vt 0.793640 0.832657
vt 0.888456 0.568881
vt 0.888456 0.769835
vt 0.878523 0.735529
vt 0.940268 0.189617
vt 0.928205 0.137243
vt 0.940268 0.000000
vt 0.928205 0.052374
vt 0.928205 0.189616
vt 0.189617 0.037493
vt 0.379233 0.000000
vt 0.189617 0.853274
vt 0.865714 0.832657
vt 0.698833 0.931198
vt 0.899937 0.758466
vt 0.993197 0.509216
vt 0.568850 0.509216
vt 0.793701 0.735584
vt 0.708779 0.568861
vt 0.878525 0.568890
vt 0.928205 0.179678
vt 0.928205 0.009939
vn 1.000000 0.000000 0.000000
vn 0.000000 0.000000 1.000000
vn -1.000000 0.000000 0.000000
vn 0.402099 0.285864 -0.869827
vn 0.000000 1.000000 0.000000
vn 0.000000 -1.000000 0.000000
vn 0.000000 0.312216 -0.950011
vn 0.000000 0.000000 -1.000000
vn 0.312216 0.000000 -0.950011
vn 0.000000 0.798297 -0.602264
vn 0.000000 0.644065 -0.764970
vn -1.000000 -0.000001 0.000000
vn 0.000000 0.620343 -0.784331
vn -0.644066 0.000000 -0.764970
vn -0.346923 0.604065 -0.717461
vn -0.366151 -0.637543 0.677844
vn -0.685121 0.000000 0.728429
vn -1.000000 0.000001 0.000000
vn 1.000000 0.000001 0.000000
vn 0.685121 0.000000 0.728429
vn 0.366151 -0.637543 0.677844
vn 0.439031 -0.674807 -0.593201
vn -0.451505 -0.693980 -0.560834
vn -0.523483 -0.844264 -0.114820
vn 0.000000 0.365502 -0.930811
vn -0.029500 -0.998950 0.035038
vn 0.019696 -0.998976 0.040732
vn 0.458119 -0.883890 -0.094154
vn 0.000000 0.365502 -0.930810
vn -0.019696 -0.998976 0.040732
vn 0.029500 -0.998950 0.035038
vn -0.312216 0.000000 -0.950011
vn 0.346923 0.604065 -0.717461
vn 0.644066 0.000000 -0.764970
vn -0.402099 0.285864 -0.869827
vn 0.000000 -0.828715 0.559671
vn 0.000000 -0.685121 0.728429
vn 0.764409 -0.508932 -0.395813
vn -0.768132 -0.521978 -0.370827
vn -0.541926 -0.832961 -0.111764
vn -0.036066 -0.998613 0.038345
vn 0.023539 -0.998773 0.043576
vn 0.543489 -0.835363 -0.082392
vn -0.023539 -0.998773 0.043576
vn 0.036066 -0.998613 0.038345
s off
f 75/1/1 42/2/1 29/3/1
f 76/4/2 45/5/2 32/6/2
f 77/7/3 48/8/3 35/9/3
f 78/10/4 50/11/4 1/12/4
f 79/13/5 36/14/5 45/15/5
f 80/16/6 28/17/6 43/18/6
f 81/19/1 30/20/1 51/21/1
f 82/22/1 53/23/1 21/24/1
f 83/25/1 54/26/1 41/27/1
f 84/28/2 33/29/2 55/30/2
f 85/31/2 57/32/2 56/33/2
f 86/34/2 58/35/2 44/36/2
f 87/37/3 36/2/3 59/38/3
f 88/39/3 61/40/3 60/41/3
f 60/41/3 89/42/3 16/43/3
f 90/44/7 38/45/7 63/46/7
f 160/47/1 134/48/1 135/49/1
f 148/50/8 111/51/8 121/52/8
f 93/53/5 48/54/5 67/55/5
f 94/56/5 69/57/5 68/58/5
f 95/59/5 70/60/5 33/61/5
f 149/62/1 113/63/1 123/64/1
f 159/65/1 133/66/1 114/67/1
f 98/68/6 74/69/6 31/70/6
f 51/21/1 12/71/1 75/1/1
f 21/24/1 51/21/1 54/26/1
f 54/26/1 75/1/1 11/72/1
f 55/30/2 15/73/2 76/4/2
f 22/74/2 55/30/2 58/35/2
f 58/35/2 76/4/2 14/75/2
f 59/38/3 18/76/3 77/7/3
f 23/77/3 59/38/3 62/78/3
f 62/78/3 77/7/3 17/79/3
f 63/46/9 20/80/9 50/11/9
f 24/81/10 63/46/10 78/10/10
f 66/82/11 78/10/11 39/83/11
f 67/55/5 18/43/5 79/13/5
f 25/84/5 67/55/5 70/60/5
f 70/60/5 79/13/5 15/85/5
f 71/86/6 10/87/6 80/16/6
f 26/72/6 71/86/6 74/69/6
f 74/69/6 80/16/6 13/88/6
f 39/89/1 1/90/1 30/20/1
f 9/91/1 39/89/1 53/23/1
f 53/23/1 81/19/1 21/24/1
f 53/23/1 82/22/1 9/91/1
f 156/92/8 129/93/8 112/94/8
f 10/95/1 82/22/1 52/96/1
f 52/96/1 21/24/1 83/25/1
f 10/95/1 52/96/1 28/97/1
f 28/97/1 83/25/1 6/98/1
f 29/99/2 2/100/2 84/28/2
f 11/101/2 29/99/2 57/32/2
f 57/32/2 84/28/2 22/74/2
f 41/102/2 11/101/2 85/31/2
f 6/103/2 41/102/2 43/104/2
f 43/104/2 85/31/2 13/105/2
f 56/33/2 22/74/2 86/34/2
f 13/105/2 56/33/2 31/106/2
f 31/106/2 86/34/2 7/107/2
f 32/108/3 3/109/3 87/37/3
f 14/110/3 32/108/3 61/40/3
f 61/40/3 87/37/3 23/77/3
f 44/111/3 14/110/3 88/39/3
f 7/112/3 44/111/3 46/54/3
f 46/54/3 88/39/3 16/43/3
f 60/41/3 23/77/3 89/42/3
f 17/79/12 89/42/12 62/78/12
f 153/113/3 125/114/3 109/115/3
f 35/116/13 4/117/13 90/44/13
f 17/118/14 35/116/14 65/119/14
f 65/119/15 90/44/15 24/81/15
f 147/120/3 108/121/3 118/122/3
f 152/123/5 119/124/5 107/125/5
f 164/126/6 141/127/6 142/128/6
f 158/129/8 120/130/8 132/131/8
f 163/132/6 140/133/6 123/134/6
f 155/135/3 117/136/3 128/137/3
f 38/138/5 4/139/5 48/54/5
f 20/140/5 38/138/5 93/53/5
f 69/57/5 93/53/5 25/84/5
f 50/141/5 20/140/5 94/56/5
f 1/142/5 50/141/5 30/143/5
f 30/143/5 94/56/5 12/144/5
f 68/58/5 25/84/5 95/59/5
f 12/144/5 68/58/5 42/145/5
f 42/145/5 95/59/5 2/146/5
f 154/147/3 126/148/3 101/149/3
f 162/150/2 137/151/2 115/152/2
f 157/153/8 130/154/8 131/155/8
f 134/48/1 64/156/1 161/157/1
f 151/158/6 121/159/6 114/160/6
f 150/161/2 116/162/2 124/163/2
f 72/27/6 26/72/6 98/68/6
f 16/98/6 72/27/6 46/164/6
f 46/164/6 98/68/6 7/165/6
f 165/166/6 112/167/6 143/168/6
f 166/169/5 110/170/5 146/171/5
f 125/114/3 147/120/3 8/172/3
f 101/149/3 128/137/3 125/114/3
f 128/137/3 49/173/3 147/120/3
f 129/93/8 148/50/8 73/174/8
f 102/175/8 132/131/8 129/93/8
f 132/131/8 5/176/8 148/50/8
f 133/66/1 149/62/1 99/177/1
f 103/178/1 136/179/1 133/66/1
f 136/179/1 19/180/1 149/62/1
f 137/151/2 150/161/2 100/181/2
f 104/182/16 139/183/16 150/184/16
f 139/185/17 96/186/17 116/162/17
f 140/133/6 151/158/6 99/187/6
f 105/188/6 143/168/6 140/133/6
f 143/168/6 73/189/6 151/158/6
f 144/190/5 152/123/5 97/191/5
f 106/192/5 146/171/5 144/190/5
f 146/171/5 37/193/5 152/123/5
f 116/194/3 153/113/3 40/195/3
f 96/196/3 127/197/3 116/194/3
f 127/197/3 101/149/3 153/113/3
f 127/197/18 96/196/18 154/147/18
f 97/198/3 126/148/3 154/147/3
f 126/148/3 155/135/3 101/149/3
f 97/198/3 107/199/3 126/148/3
f 107/199/3 91/200/3 155/135/3
f 108/201/8 156/92/8 27/202/8
f 49/203/8 131/155/8 108/201/8
f 131/155/8 102/175/8 156/92/8
f 117/204/8 157/153/8 49/203/8
f 91/205/8 119/206/8 117/204/8
f 119/206/8 37/207/8 157/153/8
f 130/154/8 158/129/8 102/175/8
f 37/207/8 110/208/8 130/154/8
f 110/208/8 92/209/8 158/129/8
f 111/210/1 159/65/1 47/211/1
f 5/212/1 135/49/1 111/210/1
f 135/49/1 103/178/1 159/65/1
f 120/213/1 160/47/1 5/212/1
f 92/214/1 122/215/1 120/213/1
f 122/215/1 64/156/1 160/47/1
f 134/48/1 161/157/1 103/178/1
f 19/180/19 136/179/19 161/157/19
f 113/216/2 162/150/2 34/217/2
f 19/218/20 138/219/20 113/216/20
f 138/220/21 104/182/21 162/221/21
f 115/222/6 163/132/6 34/146/6
f 100/223/6 142/128/6 115/222/6
f 142/128/6 105/188/6 163/132/6
f 124/224/6 164/126/6 100/223/6
f 40/103/6 109/225/6 124/224/6
f 109/225/6 8/226/6 164/126/6
f 141/127/6 165/166/6 105/188/6
f 8/226/6 118/227/6 141/127/6
f 118/227/6 27/191/6 165/166/6
f 145/227/5 166/169/5 106/192/5
f 64/228/5 122/229/5 145/227/5
f 122/229/5 92/230/5 166/169/5
f 16/231/22 89/232/22 161/157/22
f 82/233/23 10/231/23 154/147/23
f 9/234/24 82/195/24 96/235/24
f 26/236/25 72/237/25 106/73/25
f 71/238/25 26/236/25 106/73/25
f 66/239/26 9/234/26 96/235/26
f 65/240/27 24/241/27 138/220/27
f 89/242/28 17/243/28 19/244/28
f 72/237/29 16/245/29 145/246/29
f 10/247/29 71/238/29 144/248/29
f 24/241/30 66/239/30 139/183/30
f 17/243/31 65/240/31 19/244/31
f 42/2/1 2/109/1 29/3/1
f 45/5/2 3/249/2 32/6/2
f 48/8/3 4/250/3 35/9/3
f 39/83/13 78/10/13 1/12/13
f 36/14/5 3/251/5 45/15/5
f 28/17/6 6/252/6 43/18/6
f 30/20/1 12/71/1 51/21/1
f 52/96/1 82/22/1 21/24/1
f 54/26/1 11/72/1 41/27/1
f 33/29/2 15/73/2 55/30/2
f 57/32/2 22/74/2 56/33/2
f 58/35/2 14/75/2 44/36/2
f 36/2/3 18/76/3 59/38/3
f 61/40/3 23/77/3 60/41/3
f 38/45/32 20/80/32 63/46/32
f 134/48/1 103/178/1 135/49/1
f 111/51/8 47/253/8 121/52/8
f 48/54/5 18/43/5 67/55/5
f 69/57/5 25/84/5 68/58/5
f 70/60/5 15/85/5 33/61/5
f 113/63/1 34/254/1 123/64/1
f 133/66/1 99/177/1 114/67/1
f 74/69/6 13/88/6 31/70/6
f 12/71/1 42/2/1 75/1/1
f 51/21/1 75/1/1 54/26/1
f 75/1/1 29/3/1 11/72/1
f 15/73/2 45/5/2 76/4/2
f 55/30/2 76/4/2 58/35/2
f 76/4/2 32/6/2 14/75/2
f 18/76/3 48/8/3 77/7/3
f 59/38/3 77/7/3 62/78/3
f 77/7/3 35/9/3 17/79/3
f 78/10/7 63/46/7 50/11/7
f 66/82/33 24/81/33 78/10/33
f 9/255/34 66/82/34 39/83/34
f 18/43/5 36/14/5 79/13/5
f 67/55/5 79/13/5 70/60/5
f 79/13/5 45/15/5 15/85/5
f 10/87/6 28/17/6 80/16/6
f 71/86/6 80/16/6 74/69/6
f 80/16/6 43/18/6 13/88/6
f 81/19/1 39/89/1 30/20/1
f 39/89/1 81/19/1 53/23/1
f 81/19/1 51/21/1 21/24/1
f 129/93/8 73/174/8 112/94/8
f 21/24/1 54/26/1 83/25/1
f 52/96/1 83/25/1 28/97/1
f 83/25/1 41/27/1 6/98/1
f 2/100/2 33/29/2 84/28/2
f 29/99/2 84/28/2 57/32/2
f 84/28/2 55/30/2 22/74/2
f 11/101/2 57/32/2 85/31/2
f 41/102/2 85/31/2 43/104/2
f 85/31/2 56/33/2 13/105/2
f 22/74/2 58/35/2 86/34/2
f 56/33/2 86/34/2 31/106/2
f 86/34/2 44/36/2 7/107/2
f 3/109/3 36/2/3 87/37/3
f 32/108/3 87/37/3 61/40/3
f 87/37/3 59/38/3 23/77/3
f 14/110/3 61/40/3 88/39/3
f 44/111/3 88/39/3 46/54/3
f 88/39/3 60/41/3 16/43/3
f 23/77/3 62/78/3 89/42/3
f 125/114/3 8/172/3 109/115/3
f 4/117/35 38/45/35 90/44/35
f 35/116/11 90/44/11 65/119/11
f 90/44/10 63/46/10 24/81/10
f 108/121/3 27/87/3 118/122/3
f 119/124/5 91/256/5 107/125/5
f 141/127/6 105/188/6 142/128/6
f 120/130/8 5/176/8 132/131/8
f 140/133/6 99/187/6 123/134/6
f 117/136/3 49/173/3 128/137/3
f 93/53/5 38/138/5 48/54/5
f 69/57/5 20/140/5 93/53/5
f 93/53/5 67/55/5 25/84/5
f 20/140/5 69/57/5 94/56/5
f 50/141/5 94/56/5 30/143/5
f 94/56/5 68/58/5 12/144/5
f 25/84/5 70/60/5 95/59/5
f 68/58/5 95/59/5 42/145/5
f 95/59/5 33/61/5 2/146/5
f 127/197/3 154/147/3 101/149/3
f 137/151/2 100/181/2 115/152/2
f 130/154/8 102/175/8 131/155/8
f 121/159/6 47/257/6 114/160/6
f 116/162/2 40/226/2 124/163/2
f 26/72/6 74/69/6 98/68/6
f 72/27/6 98/68/6 46/164/6
f 98/68/6 31/70/6 7/165/6
f 112/167/6 73/189/6 143/168/6
f 110/170/5 37/193/5 146/171/5
f 147/120/3 118/122/3 8/172/3
f 128/137/3 147/120/3 125/114/3
f 49/173/3 108/121/3 147/120/3
f 148/50/8 121/52/8 73/174/8
f 132/131/8 148/50/8 129/93/8
f 5/176/8 111/51/8 148/50/8
f 149/62/1 123/64/1 99/177/1
f 136/179/1 149/62/1 133/66/1
f 19/180/1 113/63/1 149/62/1
f 150/161/2 124/163/2 100/181/2
f 137/258/36 104/182/36 150/184/36
f 150/161/37 139/185/37 116/162/37
f 151/158/6 114/160/6 99/187/6
f 143/168/6 151/158/6 140/133/6
f 73/189/6 121/159/6 151/158/6
f 152/123/5 107/125/5 97/191/5
f 146/171/5 152/123/5 144/190/5
f 37/193/5 119/124/5 152/123/5
f 153/113/3 109/115/3 40/195/3
f 127/197/3 153/113/3 116/194/3
f 101/149/3 125/114/3 153/113/3
f 155/135/3 128/137/3 101/149/3
f 107/199/3 155/135/3 126/148/3
f 91/200/3 117/136/3 155/135/3
f 156/92/8 112/94/8 27/202/8
f 131/155/8 156/92/8 108/201/8
f 102/175/8 129/93/8 156/92/8
f 157/153/8 131/155/8 49/203/8
f 119/206/8 157/153/8 117/204/8
f 37/207/8 130/154/8 157/153/8
f 158/129/8 132/131/8 102/175/8
f 110/208/8 158/129/8 130/154/8
f 92/209/8 120/130/8 158/129/8
f 159/65/1 114/67/1 47/211/1
f 135/49/1 159/65/1 111/210/1
f 103/178/1 133/66/1 159/65/1
f 160/47/1 135/49/1 5/212/1
f 122/215/1 160/47/1 120/213/1
f 64/156/1 134/48/1 160/47/1
f 161/157/1 136/179/1 103/178/1
f 162/150/2 115/152/2 34/217/2
f 138/219/37 162/150/37 113/216/37
f 104/182/36 137/258/36 162/221/36
f 163/132/6 123/134/6 34/146/6
f 142/128/6 163/132/6 115/222/6
f 105/188/6 140/133/6 163/132/6
f 164/126/6 142/128/6 100/223/6
f 109/225/6 164/126/6 124/224/6
f 8/226/6 141/127/6 164/126/6
f 165/166/6 143/168/6 105/188/6
f 118/227/6 165/166/6 141/127/6
f 27/191/6 112/167/6 165/166/6
f 166/169/5 146/171/5 106/192/5
f 122/229/5 166/169/5 145/227/5
f 92/230/5 110/170/5 166/169/5
f 64/156/38 16/231/38 161/157/38
f 10/231/39 97/198/39 154/147/39
f 82/195/40 154/259/40 96/235/40
f 72/237/25 145/246/25 106/73/25
f 144/248/25 71/238/25 106/73/25
f 139/183/41 66/239/41 96/235/41
f 24/241/42 104/182/42 138/220/42
f 161/260/43 89/242/43 19/244/43
f 16/245/25 64/261/25 145/246/25
f 97/262/25 10/247/25 144/248/25
f 104/182/44 24/241/44 139/183/44
f 65/240/45 138/220/45 19/244/45
