# Blender v2.69 (sub 0) OBJ File: ''
# www.blender.org
v -1.0 -1.0 0.000000
v 1.0 -1.0 0.000000
v -1.0 -1.0 -1.0
v 1.0 -1.0 -1.0
v -1.0 1.0 0.000000
v 1.0 1.0 0.000000
v -1.0 1.0 -1.0
v 1.0 1.0 -1.0
vt 0.000000 0.000000
vt 1.000000 0.000000
vt 0.000000 1.000000
vt 1.000000 1.000000
vn 0.000000 -1.000000 0.000000
vn 0.000000 1.000000 0.000000
vn 1.000000 0.000000 0.000000
vn -1.000000 0.000000 0.000000
vn 0.000000 0.000000 -1.000000
vn 0.000000 0.000000 1.000000
s off
f 1/1/1 3/2/1 2/3/1
f 5/1/2 6/2/2 7/3/2
f 2/1/3 4/2/3 6/3/3
f 3/1/4 1/2/4 7/3/4
f 4/1/5 3/2/5 8/3/5
f 1/1/6 2/2/6 5/3/6
f 3/2/1 4/4/1 2/3/1
f 6/2/2 8/4/2 7/3/2
f 4/2/3 8/4/3 6/3/3
f 1/2/4 5/4/4 7/3/4
f 3/2/5 7/4/5 8/3/5
f 2/2/6 6/4/6 5/3/6
